<?xml version="1.0" encoding="UTF-8"?>
<svg version="1.1" xmlns="http://www.w3.org/2000/svg" width="500" height="500">
<path d="M0 0 C165 0 330 0 500 0 C500 165 500 330 500 500 C335 500 170 500 0 500 C0 335 0 170 0 0 Z " fill="#000000" transform="translate(0,0)"/>
<path d="M0 0 C72.6 0 145.2 0 220 0 C216.43530097 4.15881554 213.05661977 8.06815272 209.21633911 11.90391541 C208.30777664 12.81385254 207.39921417 13.72378967 206.46311951 14.66130066 C205.47432054 15.64656192 204.48547312 16.63177456 203.49658203 17.61694336 C202.44130823 18.67193464 201.38625547 19.72714706 200.33140564 20.78256226 C197.48491224 23.62934106 194.63535925 26.47303894 191.78522348 29.31617045 C188.80056205 32.29455549 185.81875638 35.27579684 182.8366394 38.25672913 C177.19708118 43.89318663 171.55498002 49.52709145 165.91194808 55.16007096 C159.48431277 61.57650594 153.05953682 67.99580077 146.63499284 74.41533077 C133.42649513 87.61339261 120.21443242 100.80788037 107 114 C107.63027603 115.1104216 108.26055206 116.2208432 108.90992737 117.36491394 C109.26445764 117.98952609 109.6189879 118.61413824 109.98426151 119.25767803 C111.14689361 121.25197032 112.41475758 123.12527516 113.77734375 124.98828125 C114.28402588 125.6851001 114.79070801 126.38191895 115.31274414 127.09985352 C115.84891357 127.83002686 116.38508301 128.5602002 116.9375 129.3125 C118.10162317 130.91141417 119.26568391 132.51037378 120.4296875 134.109375 C121.02233398 134.92083984 121.61498047 135.73230469 122.22558594 136.56835938 C125.01559604 140.39176342 127.79024304 144.22621206 130.5625 148.0625 C131.10060303 148.80669189 131.63870605 149.55088379 132.19311523 150.31762695 C136.33154098 156.05067546 140.41362338 161.82192937 144.48071289 167.60571289 C148.11460686 172.76590195 151.79678074 177.88938149 155.5 183 C160.21040657 189.50058483 164.86297608 196.0386388 169.48046875 202.60546875 C173.11454566 207.7656672 176.79671401 212.8892894 180.5 218 C184.70685888 223.80566511 188.8759882 229.63519246 193 235.5 C197.21104289 241.48683437 201.46225239 247.44284073 205.75 253.375 C206.29358154 254.1270874 206.83716309 254.8791748 207.3972168 255.65405273 C209.78790704 258.9573595 212.18423513 262.25622681 214.59765625 265.54296875 C215.32855469 266.53941406 216.05945313 267.53585937 216.8125 268.5625 C217.43769531 269.40941406 218.06289063 270.25632812 218.70703125 271.12890625 C220 273 220 273 220 274 C147.4 274 74.8 274 0 274 C0 183.58 0 93.16 0 0 Z " fill="#D7D7D7" transform="translate(148,128)"/>
<path d="M0 0 C2.84744777 2.81932987 5.55242554 5.52341265 7.875 8.79296875 C8.37845947 9.49623291 8.88191895 10.19949707 9.40063477 10.92407227 C9.92842529 11.67100342 10.45621582 12.41793457 11 13.1875 C12.15478982 14.8048004 13.30974231 16.42198465 14.46484375 18.0390625 C15.05120605 18.8630957 15.63756836 19.68712891 16.24169922 20.53613281 C18.46031321 23.64502651 20.70109767 26.73748754 22.94335938 29.8293457 C28.1782747 37.04945585 33.35090217 44.31063994 38.48071289 51.60571289 C42.11460686 56.76590195 45.79678074 61.88938149 49.5 67 C54.21040657 73.50058483 58.86297608 80.0386388 63.48046875 86.60546875 C67.64524948 92.51923876 71.87794316 98.38214547 76.12255859 104.23876953 C80.50794054 110.29792101 84.83262008 116.3983033 89.13085938 122.51953125 C89.59556641 123.18082031 90.06027344 123.84210938 90.5390625 124.5234375 C91.18149902 125.43947754 91.18149902 125.43947754 91.83691406 126.37402344 C92.80297314 127.72455943 93.81409043 129.0427286 94.8359375 130.3515625 C96 132 96 132 96 134 C37.59 134 -20.82 134 -81 134 C-81 116.18 -81 98.36 -81 80 C-78.36 77.69 -75.72 75.38 -73 73 C-70.43858347 70.5210879 -67.90348418 68.03082702 -65.390625 65.50415039 C-64.67744614 64.79111755 -63.96426727 64.07808472 -63.22947693 63.34344482 C-60.90060298 61.01388082 -58.57527938 58.68080774 -56.25 56.34765625 C-54.62497505 54.7207639 -52.99972745 53.09409392 -51.37426758 51.46763611 C-47.11750917 47.20707793 -42.86376371 42.94352411 -38.61065674 38.67932129 C-34.26179868 34.32019426 -29.91007292 29.96393212 -25.55859375 25.60742188 C-17.03626693 17.07440258 -8.51712308 8.53821312 0 0 Z " fill="#000000" transform="translate(243,253)"/>
</svg>
